<svg width="1152" height="700" viewBox="0 0 1152 700" fill="none" xmlns="http://www.w3.org/2000/svg">
<g clip-path="url(#clip0_1_4)">
<rect width="1152" height="700" fill="white"/>
<g filter="url(#filter0_f_1_4)">
<circle cx="1072" cy="861" r="507" fill="url(#paint0_linear_1_4)"/>
</g>
<g filter="url(#filter1_f_1_4)">
<circle cx="234" cy="876" r="507" fill="url(#paint1_linear_1_4)"/>
</g>
<path d="M431.211 275.92C436.416 277.029 440.598 279.632 443.755 283.728C446.912 287.739 448.491 292.347 448.491 297.552C448.491 305.061 445.846 311.035 440.555 315.472C435.35 319.824 428.054 322 418.667 322H376.811V232.144H417.259C426.39 232.144 433.515 234.235 438.635 238.416C443.84 242.597 446.443 248.272 446.443 255.44C446.443 260.731 445.035 265.125 442.219 268.624C439.488 272.123 435.819 274.555 431.211 275.92ZM398.699 268.496H413.035C416.619 268.496 419.35 267.728 421.227 266.192C423.19 264.571 424.171 262.224 424.171 259.152C424.171 256.08 423.19 253.733 421.227 252.112C419.35 250.491 416.619 249.68 413.035 249.68H398.699V268.496ZM414.827 304.336C418.496 304.336 421.312 303.525 423.275 301.904C425.323 300.197 426.347 297.765 426.347 294.608C426.347 291.451 425.28 288.976 423.147 287.184C421.099 285.392 418.24 284.496 414.571 284.496H398.699V304.336H414.827ZM531.714 250.576V322H509.826V312.272C507.607 315.429 504.578 317.989 500.738 319.952C496.983 321.829 492.802 322.768 488.194 322.768C482.733 322.768 477.911 321.573 473.73 319.184C469.549 316.709 466.306 313.168 464.002 308.56C461.698 303.952 460.546 298.533 460.546 292.304V250.576H482.306V289.36C482.306 294.139 483.543 297.851 486.018 300.496C488.493 303.141 491.821 304.464 496.002 304.464C500.269 304.464 503.639 303.141 506.114 300.496C508.589 297.851 509.826 294.139 509.826 289.36V250.576H531.714ZM567.916 303.952H598.892V322H543.468V304.592L573.164 268.624H543.724V250.576H598.252V267.984L567.916 303.952ZM631.416 303.952H662.392V322H606.968V304.592L636.664 268.624H607.224V250.576H661.752V267.984L631.416 303.952ZM696.324 227.28V322H674.436V227.28H696.324ZM785.146 250.576L740.346 355.92H716.794L733.178 319.568L704.122 250.576H728.57L745.082 295.248L761.466 250.576H785.146Z" fill="black"/>
<path d="M384.567 346.24H389.787V347H383.667V332.96H384.567V346.24ZM392.291 333.72C392.078 333.72 391.898 333.653 391.751 333.52C391.605 333.373 391.531 333.18 391.531 332.94C391.531 332.713 391.605 332.527 391.751 332.38C391.898 332.233 392.078 332.16 392.291 332.16C392.505 332.16 392.685 332.233 392.831 332.38C392.978 332.527 393.051 332.713 393.051 332.94C393.051 333.18 392.978 333.373 392.831 333.52C392.685 333.653 392.505 333.72 392.291 333.72ZM392.731 336.14V347H391.831V336.14H392.731ZM400.711 336C401.857 336 402.831 336.28 403.631 336.84C404.431 337.387 404.991 338.093 405.311 338.96V336.14H406.211V347.34C406.211 348.34 405.991 349.213 405.551 349.96C405.111 350.72 404.517 351.3 403.771 351.7C403.024 352.113 402.191 352.32 401.271 352.32C399.911 352.32 398.784 351.993 397.891 351.34C396.997 350.687 396.411 349.807 396.131 348.7H397.031C397.297 349.567 397.797 350.253 398.531 350.76C399.264 351.28 400.177 351.54 401.271 351.54C402.031 351.54 402.717 351.367 403.331 351.02C403.944 350.687 404.424 350.2 404.771 349.56C405.131 348.933 405.311 348.193 405.311 347.34V344.16C404.991 345.027 404.424 345.747 403.611 346.32C402.811 346.88 401.844 347.16 400.711 347.16C399.697 347.16 398.791 346.933 397.991 346.48C397.204 346.013 396.584 345.36 396.131 344.52C395.691 343.667 395.471 342.68 395.471 341.56C395.471 340.44 395.691 339.46 396.131 338.62C396.584 337.78 397.204 337.133 397.991 336.68C398.791 336.227 399.697 336 400.711 336ZM405.311 341.56C405.311 340.613 405.111 339.78 404.711 339.06C404.324 338.327 403.791 337.767 403.111 337.38C402.431 336.98 401.671 336.78 400.831 336.78C399.951 336.78 399.177 336.973 398.511 337.36C397.844 337.733 397.324 338.28 396.951 339C396.577 339.72 396.391 340.573 396.391 341.56C396.391 342.547 396.577 343.4 396.951 344.12C397.324 344.84 397.844 345.393 398.511 345.78C399.191 346.167 399.964 346.36 400.831 346.36C401.671 346.36 402.431 346.167 403.111 345.78C403.804 345.38 404.344 344.82 404.731 344.1C405.117 343.367 405.311 342.52 405.311 341.56ZM414.408 335.92C415.688 335.92 416.734 336.32 417.548 337.12C418.361 337.907 418.768 339.08 418.768 340.64V347H417.888V340.7C417.888 339.407 417.561 338.42 416.908 337.74C416.254 337.047 415.368 336.7 414.248 336.7C413.074 336.7 412.134 337.073 411.428 337.82C410.734 338.567 410.388 339.673 410.388 341.14V347H409.488V332.2H410.388V338.44C410.694 337.627 411.208 337.007 411.928 336.58C412.648 336.14 413.474 335.92 414.408 335.92ZM423.289 336.92V344.1C423.289 344.9 423.435 345.453 423.729 345.76C424.022 346.053 424.542 346.2 425.289 346.2H426.509V347H425.149C424.202 347 423.502 346.78 423.049 346.34C422.609 345.887 422.389 345.14 422.389 344.1V336.92H420.749V336.14H422.389V333.38H423.289V336.14H426.509V336.92H423.289ZM443.082 336.14L439.662 347H438.802L435.342 337.38L431.862 347H431.002L427.582 336.14H428.522L431.442 345.98L434.922 336.14H435.782L439.242 345.94L442.162 336.14H443.082ZM454.834 340.84C454.834 341.32 454.821 341.68 454.794 341.92H445.414C445.441 342.893 445.654 343.713 446.054 344.38C446.454 345.047 446.981 345.547 447.634 345.88C448.287 346.213 449.001 346.38 449.774 346.38C450.841 346.38 451.734 346.12 452.454 345.6C453.174 345.067 453.627 344.347 453.814 343.44H454.754C454.541 344.547 453.994 345.447 453.114 346.14C452.234 346.82 451.121 347.16 449.774 347.16C448.761 347.16 447.854 346.933 447.054 346.48C446.254 346.027 445.627 345.38 445.174 344.54C444.721 343.687 444.494 342.693 444.494 341.56C444.494 340.427 444.714 339.44 445.154 338.6C445.607 337.76 446.234 337.12 447.034 336.68C447.834 336.227 448.747 336 449.774 336C450.814 336 451.714 336.227 452.474 336.68C453.247 337.12 453.834 337.713 454.234 338.46C454.634 339.193 454.834 339.987 454.834 340.84ZM453.934 341.18C453.974 340.22 453.801 339.407 453.414 338.74C453.041 338.073 452.527 337.58 451.874 337.26C451.221 336.927 450.514 336.76 449.754 336.76C448.994 336.76 448.287 336.927 447.634 337.26C446.994 337.58 446.467 338.073 446.054 338.74C445.654 339.407 445.441 340.22 445.414 341.18H453.934ZM458.014 333.72C457.801 333.72 457.621 333.653 457.474 333.52C457.327 333.373 457.254 333.18 457.254 332.94C457.254 332.713 457.327 332.527 457.474 332.38C457.621 332.233 457.801 332.16 458.014 332.16C458.227 332.16 458.407 332.233 458.554 332.38C458.701 332.527 458.774 332.713 458.774 332.94C458.774 333.18 458.701 333.373 458.554 333.52C458.407 333.653 458.227 333.72 458.014 333.72ZM458.454 336.14V347H457.554V336.14H458.454ZM466.433 336C467.58 336 468.553 336.28 469.353 336.84C470.153 337.387 470.713 338.093 471.033 338.96V336.14H471.933V347.34C471.933 348.34 471.713 349.213 471.273 349.96C470.833 350.72 470.24 351.3 469.493 351.7C468.747 352.113 467.913 352.32 466.993 352.32C465.633 352.32 464.507 351.993 463.613 351.34C462.72 350.687 462.133 349.807 461.853 348.7H462.753C463.02 349.567 463.52 350.253 464.253 350.76C464.987 351.28 465.9 351.54 466.993 351.54C467.753 351.54 468.44 351.367 469.053 351.02C469.667 350.687 470.147 350.2 470.493 349.56C470.853 348.933 471.033 348.193 471.033 347.34V344.16C470.713 345.027 470.147 345.747 469.333 346.32C468.533 346.88 467.567 347.16 466.433 347.16C465.42 347.16 464.513 346.933 463.713 346.48C462.927 346.013 462.307 345.36 461.853 344.52C461.413 343.667 461.193 342.68 461.193 341.56C461.193 340.44 461.413 339.46 461.853 338.62C462.307 337.78 462.927 337.133 463.713 336.68C464.513 336.227 465.42 336 466.433 336ZM471.033 341.56C471.033 340.613 470.833 339.78 470.433 339.06C470.047 338.327 469.513 337.767 468.833 337.38C468.153 336.98 467.393 336.78 466.553 336.78C465.673 336.78 464.9 336.973 464.233 337.36C463.567 337.733 463.047 338.28 462.673 339C462.3 339.72 462.113 340.573 462.113 341.56C462.113 342.547 462.3 343.4 462.673 344.12C463.047 344.84 463.567 345.393 464.233 345.78C464.913 346.167 465.687 346.36 466.553 346.36C467.393 346.36 468.153 346.167 468.833 345.78C469.527 345.38 470.067 344.82 470.453 344.1C470.84 343.367 471.033 342.52 471.033 341.56ZM480.13 335.92C481.41 335.92 482.457 336.32 483.27 337.12C484.084 337.907 484.49 339.08 484.49 340.64V347H483.61V340.7C483.61 339.407 483.284 338.42 482.63 337.74C481.977 337.047 481.09 336.7 479.97 336.7C478.797 336.7 477.857 337.073 477.15 337.82C476.457 338.567 476.11 339.673 476.11 341.14V347H475.21V332.2H476.11V338.44C476.417 337.627 476.93 337.007 477.65 336.58C478.37 336.14 479.197 335.92 480.13 335.92ZM489.011 336.92V344.1C489.011 344.9 489.158 345.453 489.451 345.76C489.745 346.053 490.265 346.2 491.011 346.2H492.231V347H490.871C489.925 347 489.225 346.78 488.771 346.34C488.331 345.887 488.111 345.14 488.111 344.1V336.92H486.471V336.14H488.111V333.38H489.011V336.14H492.231V336.92H489.011ZM501.589 336.92V344.1C501.589 344.9 501.736 345.453 502.029 345.76C502.323 346.053 502.843 346.2 503.589 346.2H504.809V347H503.449C502.503 347 501.803 346.78 501.349 346.34C500.909 345.887 500.689 345.14 500.689 344.1V336.92H499.049V336.14H500.689V333.38H501.589V336.14H504.809V336.92H501.589ZM511.963 347.16C510.95 347.16 510.036 346.933 509.223 346.48C508.41 346.027 507.77 345.38 507.303 344.54C506.85 343.687 506.623 342.693 506.623 341.56C506.623 340.44 506.856 339.46 507.323 338.62C507.79 337.767 508.43 337.12 509.243 336.68C510.07 336.227 510.99 336 512.003 336C513.016 336 513.93 336.227 514.743 336.68C515.556 337.12 516.19 337.76 516.643 338.6C517.11 339.44 517.343 340.427 517.343 341.56C517.343 342.693 517.11 343.687 516.643 344.54C516.176 345.38 515.53 346.027 514.703 346.48C513.89 346.933 512.976 347.16 511.963 347.16ZM511.963 346.36C512.75 346.36 513.483 346.187 514.163 345.84C514.856 345.48 515.41 344.94 515.823 344.22C516.236 343.5 516.443 342.613 516.443 341.56C516.443 340.52 516.236 339.64 515.823 338.92C515.41 338.2 514.863 337.667 514.183 337.32C513.503 336.96 512.77 336.78 511.983 336.78C511.196 336.78 510.463 336.96 509.783 337.32C509.116 337.667 508.576 338.2 508.163 338.92C507.75 339.64 507.543 340.52 507.543 341.56C507.543 342.613 507.743 343.5 508.143 344.22C508.556 344.94 509.096 345.48 509.763 345.84C510.443 346.187 511.176 346.36 511.963 346.36ZM519.514 341.56C519.514 340.44 519.734 339.46 520.174 338.62C520.627 337.78 521.247 337.133 522.034 336.68C522.834 336.227 523.74 336 524.754 336C525.9 336 526.874 336.28 527.674 336.84C528.474 337.4 529.034 338.113 529.354 338.98V336.14H530.254V347H529.354V344.14C529.034 345.02 528.467 345.747 527.654 346.32C526.854 346.88 525.887 347.16 524.754 347.16C523.74 347.16 522.834 346.933 522.034 346.48C521.247 346.013 520.627 345.36 520.174 344.52C519.734 343.667 519.514 342.68 519.514 341.56ZM529.354 341.56C529.354 340.613 529.154 339.78 528.754 339.06C528.367 338.327 527.834 337.767 527.154 337.38C526.474 336.98 525.714 336.78 524.874 336.78C523.994 336.78 523.22 336.973 522.554 337.36C521.887 337.733 521.367 338.28 520.994 339C520.62 339.72 520.434 340.573 520.434 341.56C520.434 342.547 520.62 343.4 520.994 344.12C521.367 344.84 521.887 345.393 522.554 345.78C523.234 346.167 524.007 346.36 524.874 346.36C525.714 346.36 526.474 346.167 527.154 345.78C527.847 345.38 528.387 344.82 528.774 344.1C529.16 343.367 529.354 342.52 529.354 341.56ZM537.151 347.16C535.937 347.16 534.944 346.893 534.171 346.36C533.411 345.827 532.984 345.067 532.891 344.08H533.811C533.877 344.787 534.197 345.347 534.771 345.76C535.357 346.173 536.151 346.38 537.151 346.38C537.977 346.38 538.631 346.173 539.111 345.76C539.604 345.333 539.851 344.813 539.851 344.2C539.851 343.773 539.717 343.427 539.451 343.16C539.197 342.88 538.877 342.667 538.491 342.52C538.104 342.373 537.577 342.213 536.911 342.04C536.111 341.827 535.464 341.62 534.971 341.42C534.477 341.207 534.057 340.893 533.711 340.48C533.364 340.067 533.191 339.513 533.191 338.82C533.191 338.313 533.344 337.847 533.651 337.42C533.957 336.98 534.384 336.633 534.931 336.38C535.477 336.127 536.097 336 536.791 336C537.924 336 538.837 336.287 539.531 336.86C540.237 337.42 540.617 338.2 540.671 339.2H539.771C539.731 338.48 539.451 337.893 538.931 337.44C538.411 336.987 537.691 336.76 536.771 336.76C535.997 336.76 535.357 336.96 534.851 337.36C534.344 337.76 534.091 338.247 534.091 338.82C534.091 339.327 534.231 339.74 534.511 340.06C534.804 340.367 535.157 340.607 535.571 340.78C535.997 340.94 536.557 341.113 537.251 341.3C538.011 341.5 538.617 341.7 539.071 341.9C539.537 342.087 539.931 342.367 540.251 342.74C540.571 343.1 540.731 343.587 540.731 344.2C540.731 344.76 540.577 345.267 540.271 345.72C539.964 346.173 539.537 346.527 538.991 346.78C538.444 347.033 537.831 347.16 537.151 347.16ZM544.812 336.92V344.1C544.812 344.9 544.959 345.453 545.252 345.76C545.545 346.053 546.065 346.2 546.812 346.2H548.032V347H546.672C545.725 347 545.025 346.78 544.572 346.34C544.132 345.887 543.912 345.14 543.912 344.1V336.92H542.272V336.14H543.912V333.38H544.812V336.14H548.032V336.92H544.812ZM560.95 335.92C562.243 335.92 563.297 336.32 564.11 337.12C564.923 337.907 565.33 339.08 565.33 340.64V347H564.45V340.7C564.45 339.407 564.123 338.42 563.47 337.74C562.817 337.047 561.93 336.7 560.81 336.7C559.637 336.7 558.697 337.073 557.99 337.82C557.297 338.567 556.95 339.673 556.95 341.14V347H556.05V336.14H556.95V338.44C557.257 337.627 557.763 337.007 558.47 336.58C559.19 336.14 560.017 335.92 560.95 335.92ZM573.291 347.16C572.278 347.16 571.364 346.933 570.551 346.48C569.738 346.027 569.098 345.38 568.631 344.54C568.178 343.687 567.951 342.693 567.951 341.56C567.951 340.44 568.184 339.46 568.651 338.62C569.118 337.767 569.758 337.12 570.571 336.68C571.398 336.227 572.318 336 573.331 336C574.344 336 575.258 336.227 576.071 336.68C576.884 337.12 577.518 337.76 577.971 338.6C578.438 339.44 578.671 340.427 578.671 341.56C578.671 342.693 578.438 343.687 577.971 344.54C577.504 345.38 576.858 346.027 576.031 346.48C575.218 346.933 574.304 347.16 573.291 347.16ZM573.291 346.36C574.078 346.36 574.811 346.187 575.491 345.84C576.184 345.48 576.738 344.94 577.151 344.22C577.564 343.5 577.771 342.613 577.771 341.56C577.771 340.52 577.564 339.64 577.151 338.92C576.738 338.2 576.191 337.667 575.511 337.32C574.831 336.96 574.098 336.78 573.311 336.78C572.524 336.78 571.791 336.96 571.111 337.32C570.444 337.667 569.904 338.2 569.491 338.92C569.078 339.64 568.871 340.52 568.871 341.56C568.871 342.613 569.071 343.5 569.471 344.22C569.884 344.94 570.424 345.48 571.091 345.84C571.771 346.187 572.504 346.36 573.291 346.36ZM582.742 336.92V344.1C582.742 344.9 582.888 345.453 583.182 345.76C583.475 346.053 583.995 346.2 584.742 346.2H585.962V347H584.602C583.655 347 582.955 346.78 582.502 346.34C582.062 345.887 581.842 345.14 581.842 344.1V336.92H580.202V336.14H581.842V333.38H582.742V336.14H585.962V336.92H582.742ZM588.795 333.72C588.582 333.72 588.402 333.653 588.255 333.52C588.109 333.373 588.035 333.18 588.035 332.94C588.035 332.713 588.109 332.527 588.255 332.38C588.402 332.233 588.582 332.16 588.795 332.16C589.009 332.16 589.189 332.233 589.335 332.38C589.482 332.527 589.555 332.713 589.555 332.94C589.555 333.18 589.482 333.373 589.335 333.52C589.189 333.653 589.009 333.72 588.795 333.72ZM589.235 336.14V347H588.335V336.14H589.235ZM596.675 336.94H593.855V347H592.955V336.94H591.315V336.14H592.955V335.38C592.955 334.247 593.241 333.407 593.815 332.86C594.388 332.3 595.328 332.02 596.635 332.02V332.82C595.595 332.82 594.868 333.02 594.455 333.42C594.055 333.82 593.855 334.473 593.855 335.38V336.14H596.675V336.94ZM599.44 333.72C599.227 333.72 599.047 333.653 598.9 333.52C598.753 333.373 598.68 333.18 598.68 332.94C598.68 332.713 598.753 332.527 598.9 332.38C599.047 332.233 599.227 332.16 599.44 332.16C599.653 332.16 599.833 332.233 599.98 332.38C600.127 332.527 600.2 332.713 600.2 332.94C600.2 333.18 600.127 333.373 599.98 333.52C599.833 333.653 599.653 333.72 599.44 333.72ZM599.88 336.14V347H598.98V336.14H599.88ZM602.619 341.56C602.619 340.427 602.839 339.44 603.279 338.6C603.732 337.76 604.352 337.12 605.139 336.68C605.939 336.227 606.852 336 607.879 336C609.239 336 610.352 336.34 611.219 337.02C612.099 337.7 612.646 338.613 612.859 339.76H611.919C611.746 338.827 611.292 338.093 610.559 337.56C609.839 337.027 608.946 336.76 607.879 336.76C607.079 336.76 606.352 336.94 605.699 337.3C605.046 337.647 604.519 338.187 604.119 338.92C603.732 339.64 603.539 340.52 603.539 341.56C603.539 342.613 603.732 343.5 604.119 344.22C604.519 344.94 605.046 345.48 605.699 345.84C606.352 346.2 607.079 346.38 607.879 346.38C608.946 346.38 609.839 346.113 610.559 345.58C611.292 345.047 611.746 344.313 611.919 343.38H612.859C612.646 344.513 612.099 345.427 611.219 346.12C610.339 346.813 609.226 347.16 607.879 347.16C606.852 347.16 605.939 346.933 605.139 346.48C604.352 346.027 603.732 345.38 603.279 344.54C602.839 343.687 602.619 342.693 602.619 341.56ZM615.041 341.56C615.041 340.44 615.261 339.46 615.701 338.62C616.154 337.78 616.774 337.133 617.561 336.68C618.361 336.227 619.268 336 620.281 336C621.428 336 622.401 336.28 623.201 336.84C624.001 337.4 624.561 338.113 624.881 338.98V336.14H625.781V347H624.881V344.14C624.561 345.02 623.994 345.747 623.181 346.32C622.381 346.88 621.414 347.16 620.281 347.16C619.268 347.16 618.361 346.933 617.561 346.48C616.774 346.013 616.154 345.36 615.701 344.52C615.261 343.667 615.041 342.68 615.041 341.56ZM624.881 341.56C624.881 340.613 624.681 339.78 624.281 339.06C623.894 338.327 623.361 337.767 622.681 337.38C622.001 336.98 621.241 336.78 620.401 336.78C619.521 336.78 618.748 336.973 618.081 337.36C617.414 337.733 616.894 338.28 616.521 339C616.148 339.72 615.961 340.573 615.961 341.56C615.961 342.547 616.148 343.4 616.521 344.12C616.894 344.84 617.414 345.393 618.081 345.78C618.761 346.167 619.534 346.36 620.401 346.36C621.241 346.36 622.001 346.167 622.681 345.78C623.374 345.38 623.914 344.82 624.301 344.1C624.688 343.367 624.881 342.52 624.881 341.56ZM630.398 336.92V344.1C630.398 344.9 630.545 345.453 630.838 345.76C631.131 346.053 631.651 346.2 632.398 346.2H633.618V347H632.258C631.311 347 630.611 346.78 630.158 346.34C629.718 345.887 629.498 345.14 629.498 344.1V336.92H627.858V336.14H629.498V333.38H630.398V336.14H633.618V336.92H630.398ZM636.452 333.72C636.238 333.72 636.058 333.653 635.912 333.52C635.765 333.373 635.692 333.18 635.692 332.94C635.692 332.713 635.765 332.527 635.912 332.38C636.058 332.233 636.238 332.16 636.452 332.16C636.665 332.16 636.845 332.233 636.992 332.38C637.138 332.527 637.212 332.713 637.212 332.94C637.212 333.18 637.138 333.373 636.992 333.52C636.845 333.653 636.665 333.72 636.452 333.72ZM636.892 336.14V347H635.992V336.14H636.892ZM644.971 347.16C643.957 347.16 643.044 346.933 642.231 346.48C641.417 346.027 640.777 345.38 640.311 344.54C639.857 343.687 639.631 342.693 639.631 341.56C639.631 340.44 639.864 339.46 640.331 338.62C640.797 337.767 641.437 337.12 642.251 336.68C643.077 336.227 643.997 336 645.011 336C646.024 336 646.937 336.227 647.751 336.68C648.564 337.12 649.197 337.76 649.651 338.6C650.117 339.44 650.351 340.427 650.351 341.56C650.351 342.693 650.117 343.687 649.651 344.54C649.184 345.38 648.537 346.027 647.711 346.48C646.897 346.933 645.984 347.16 644.971 347.16ZM644.971 346.36C645.757 346.36 646.491 346.187 647.171 345.84C647.864 345.48 648.417 344.94 648.831 344.22C649.244 343.5 649.451 342.613 649.451 341.56C649.451 340.52 649.244 339.64 648.831 338.92C648.417 338.2 647.871 337.667 647.191 337.32C646.511 336.96 645.777 336.78 644.991 336.78C644.204 336.78 643.471 336.96 642.791 337.32C642.124 337.667 641.584 338.2 641.171 338.92C640.757 339.64 640.551 340.52 640.551 341.56C640.551 342.613 640.751 343.5 641.151 344.22C641.564 344.94 642.104 345.48 642.771 345.84C643.451 346.187 644.184 346.36 644.971 346.36ZM657.981 335.92C659.275 335.92 660.328 336.32 661.141 337.12C661.955 337.907 662.361 339.08 662.361 340.64V347H661.481V340.7C661.481 339.407 661.155 338.42 660.501 337.74C659.848 337.047 658.961 336.7 657.841 336.7C656.668 336.7 655.728 337.073 655.021 337.82C654.328 338.567 653.981 339.673 653.981 341.14V347H653.081V336.14H653.981V338.44C654.288 337.627 654.795 337.007 655.501 336.58C656.221 336.14 657.048 335.92 657.981 335.92ZM669.162 347.16C667.949 347.16 666.956 346.893 666.182 346.36C665.422 345.827 664.996 345.067 664.902 344.08H665.822C665.889 344.787 666.209 345.347 666.782 345.76C667.369 346.173 668.162 346.38 669.162 346.38C669.989 346.38 670.642 346.173 671.122 345.76C671.616 345.333 671.862 344.813 671.862 344.2C671.862 343.773 671.729 343.427 671.462 343.16C671.209 342.88 670.889 342.667 670.502 342.52C670.116 342.373 669.589 342.213 668.922 342.04C668.122 341.827 667.476 341.62 666.982 341.42C666.489 341.207 666.069 340.893 665.722 340.48C665.376 340.067 665.202 339.513 665.202 338.82C665.202 338.313 665.356 337.847 665.662 337.42C665.969 336.98 666.396 336.633 666.942 336.38C667.489 336.127 668.109 336 668.802 336C669.936 336 670.849 336.287 671.542 336.86C672.249 337.42 672.629 338.2 672.682 339.2H671.782C671.742 338.48 671.462 337.893 670.942 337.44C670.422 336.987 669.702 336.76 668.782 336.76C668.009 336.76 667.369 336.96 666.862 337.36C666.356 337.76 666.102 338.247 666.102 338.82C666.102 339.327 666.242 339.74 666.522 340.06C666.816 340.367 667.169 340.607 667.582 340.78C668.009 340.94 668.569 341.113 669.262 341.3C670.022 341.5 670.629 341.7 671.082 341.9C671.549 342.087 671.942 342.367 672.262 342.74C672.582 343.1 672.742 343.587 672.742 344.2C672.742 344.76 672.589 345.267 672.282 345.72C671.976 346.173 671.549 346.527 671.002 346.78C670.456 347.033 669.842 347.16 669.162 347.16ZM685.268 336.94H682.448V347H681.548V336.94H679.908V336.14H681.548V335.38C681.548 334.247 681.835 333.407 682.408 332.86C682.982 332.3 683.922 332.02 685.228 332.02V332.82C684.188 332.82 683.462 333.02 683.048 333.42C682.648 333.82 682.448 334.473 682.448 335.38V336.14H685.268V336.94ZM692.354 347.16C691.34 347.16 690.427 346.933 689.614 346.48C688.8 346.027 688.16 345.38 687.694 344.54C687.24 343.687 687.014 342.693 687.014 341.56C687.014 340.44 687.247 339.46 687.714 338.62C688.18 337.767 688.82 337.12 689.634 336.68C690.46 336.227 691.38 336 692.394 336C693.407 336 694.32 336.227 695.134 336.68C695.947 337.12 696.58 337.76 697.034 338.6C697.5 339.44 697.734 340.427 697.734 341.56C697.734 342.693 697.5 343.687 697.034 344.54C696.567 345.38 695.92 346.027 695.094 346.48C694.28 346.933 693.367 347.16 692.354 347.16ZM692.354 346.36C693.14 346.36 693.874 346.187 694.554 345.84C695.247 345.48 695.8 344.94 696.214 344.22C696.627 343.5 696.834 342.613 696.834 341.56C696.834 340.52 696.627 339.64 696.214 338.92C695.8 338.2 695.254 337.667 694.574 337.32C693.894 336.96 693.16 336.78 692.374 336.78C691.587 336.78 690.854 336.96 690.174 337.32C689.507 337.667 688.967 338.2 688.554 338.92C688.14 339.64 687.934 340.52 687.934 341.56C687.934 342.613 688.134 343.5 688.534 344.22C688.947 344.94 689.487 345.48 690.154 345.84C690.834 346.187 691.567 346.36 692.354 346.36ZM701.364 338.38C701.631 337.58 702.104 336.973 702.784 336.56C703.464 336.133 704.331 335.92 705.384 335.92V336.86H705.084C704.018 336.86 703.131 337.167 702.424 337.78C701.718 338.38 701.364 339.367 701.364 340.74V347H700.464V336.14H701.364V338.38ZM720.681 347L717.081 341.02H717.001H714.001V347H713.101V332.96H716.961C718.521 332.96 719.688 333.327 720.461 334.06C721.248 334.793 721.641 335.767 721.641 336.98C721.641 338.06 721.334 338.953 720.721 339.66C720.121 340.353 719.241 340.78 718.081 340.94L721.761 347H720.681ZM714.001 340.26H717.001C718.241 340.26 719.168 339.96 719.781 339.36C720.394 338.76 720.701 337.967 720.701 336.98C720.701 334.833 719.454 333.76 716.961 333.76H714.001V340.26ZM734.092 340.84C734.092 341.32 734.079 341.68 734.052 341.92H724.672C724.699 342.893 724.912 343.713 725.312 344.38C725.712 345.047 726.239 345.547 726.892 345.88C727.545 346.213 728.259 346.38 729.032 346.38C730.099 346.38 730.992 346.12 731.712 345.6C732.432 345.067 732.885 344.347 733.072 343.44H734.012C733.799 344.547 733.252 345.447 732.372 346.14C731.492 346.82 730.379 347.16 729.032 347.16C728.019 347.16 727.112 346.933 726.312 346.48C725.512 346.027 724.885 345.38 724.432 344.54C723.979 343.687 723.752 342.693 723.752 341.56C723.752 340.427 723.972 339.44 724.412 338.6C724.865 337.76 725.492 337.12 726.292 336.68C727.092 336.227 728.005 336 729.032 336C730.072 336 730.972 336.227 731.732 336.68C732.505 337.12 733.092 337.713 733.492 338.46C733.892 339.193 734.092 339.987 734.092 340.84ZM733.192 341.18C733.232 340.22 733.059 339.407 732.672 338.74C732.299 338.073 731.785 337.58 731.132 337.26C730.479 336.927 729.772 336.76 729.012 336.76C728.252 336.76 727.545 336.927 726.892 337.26C726.252 337.58 725.725 338.073 725.312 338.74C724.912 339.407 724.699 340.22 724.672 341.18H733.192ZM764.031 336.92V344.1C764.031 344.9 764.177 345.453 764.471 345.76C764.764 346.053 765.284 346.2 766.031 346.2H767.251V347H765.891C764.944 347 764.244 346.78 763.791 346.34C763.351 345.887 763.131 345.14 763.131 344.1V336.92H761.491V336.14H763.131V333.38H764.031V336.14H767.251V336.92H764.031ZM769.484 347.06C769.258 347.06 769.071 346.987 768.924 346.84C768.778 346.693 768.704 346.507 768.704 346.28C768.704 346.053 768.778 345.867 768.924 345.72C769.071 345.573 769.258 345.5 769.484 345.5C769.698 345.5 769.878 345.573 770.024 345.72C770.171 345.867 770.244 346.053 770.244 346.28C770.244 346.507 770.171 346.693 770.024 346.84C769.878 346.987 769.698 347.06 769.484 347.06Z" fill="black"/>
<path d="M736.252 341.56C736.252 340.44 736.472 339.46 736.912 338.62C737.365 337.78 737.985 337.133 738.772 336.68C739.572 336.227 740.479 336 741.492 336C742.639 336 743.612 336.28 744.412 336.84C745.212 337.4 745.772 338.113 746.092 338.98V336.14H746.992V347H746.092V344.14C745.772 345.02 745.205 345.747 744.392 346.32C743.592 346.88 742.625 347.16 741.492 347.16C740.479 347.16 739.572 346.933 738.772 346.48C737.985 346.013 737.365 345.36 736.912 344.52C736.472 343.667 736.252 342.68 736.252 341.56ZM746.092 341.56C746.092 340.613 745.892 339.78 745.492 339.06C745.105 338.327 744.572 337.767 743.892 337.38C743.212 336.98 742.452 336.78 741.612 336.78C740.732 336.78 739.959 336.973 739.292 337.36C738.625 337.733 738.105 338.28 737.732 339C737.359 339.72 737.172 340.573 737.172 341.56C737.172 342.547 737.359 343.4 737.732 344.12C738.105 344.84 738.625 345.393 739.292 345.78C739.972 346.167 740.745 346.36 741.612 346.36C742.452 346.36 743.212 346.167 743.892 345.78C744.585 345.38 745.125 344.82 745.512 344.1C745.899 343.367 746.092 342.52 746.092 341.56ZM749.709 341.56C749.709 340.427 749.929 339.44 750.369 338.6C750.822 337.76 751.442 337.12 752.229 336.68C753.029 336.227 753.942 336 754.969 336C756.329 336 757.442 336.34 758.309 337.02C759.189 337.7 759.736 338.613 759.949 339.76H759.009C758.836 338.827 758.382 338.093 757.649 337.56C756.929 337.027 756.036 336.76 754.969 336.76C754.169 336.76 753.442 336.94 752.789 337.3C752.136 337.647 751.609 338.187 751.209 338.92C750.822 339.64 750.629 340.52 750.629 341.56C750.629 342.613 750.822 343.5 751.209 344.22C751.609 344.94 752.136 345.48 752.789 345.84C753.442 346.2 754.169 346.38 754.969 346.38C756.036 346.38 756.929 346.113 757.649 345.58C758.382 345.047 758.836 344.313 759.009 343.38H759.949C759.736 344.513 759.189 345.427 758.309 346.12C757.429 346.813 756.316 347.16 754.969 347.16C753.942 347.16 753.029 346.933 752.229 346.48C751.442 346.027 750.822 345.38 750.369 344.54C749.929 343.687 749.709 342.693 749.709 341.56Z" fill="white"/>
<rect x="420" y="381" width="312" height="44" rx="5" fill="#F3F2F7"/>
<path d="M491.564 409V400.2H493.132V401.88H493.148C493.223 401.304 493.463 400.856 493.868 400.536C494.284 400.205 494.828 400.04 495.5 400.04C496.375 400.04 497.074 400.317 497.596 400.872C498.119 401.427 498.38 402.173 498.38 403.112V409H496.796V403.368C496.796 402.728 496.636 402.237 496.316 401.896C495.996 401.555 495.559 401.384 495.004 401.384C494.428 401.384 493.975 401.565 493.644 401.928C493.314 402.28 493.148 402.776 493.148 403.416V409H491.564ZM501.158 411.88V400.2H502.726V401.896H502.742C502.827 401.32 503.083 400.867 503.51 400.536C503.937 400.205 504.481 400.04 505.142 400.04C506.017 400.04 506.715 400.339 507.238 400.936C507.761 401.523 508.022 402.323 508.022 403.336V405.848C508.022 406.872 507.761 407.683 507.238 408.28C506.715 408.867 506.017 409.16 505.142 409.16C504.491 409.16 503.953 408.995 503.526 408.664C503.099 408.333 502.838 407.88 502.742 407.304H502.71L502.742 409.336V411.88H501.158ZM504.582 407.784C505.169 407.784 505.622 407.635 505.942 407.336C506.273 407.027 506.438 406.531 506.438 405.848V403.352C506.438 402.669 506.273 402.179 505.942 401.88C505.622 401.571 505.169 401.416 504.582 401.416C504.017 401.416 503.569 401.592 503.238 401.944C502.907 402.296 502.742 402.792 502.742 403.432V405.768C502.742 406.408 502.907 406.904 503.238 407.256C503.569 407.608 504.017 407.784 504.582 407.784ZM510.256 409V400.2H511.6V401.4H511.648C511.69 400.995 511.84 400.669 512.096 400.424C512.362 400.168 512.698 400.04 513.104 400.04C513.498 400.04 513.829 400.157 514.096 400.392C514.362 400.627 514.554 400.941 514.672 401.336C514.736 400.931 514.901 400.616 515.168 400.392C515.434 400.157 515.77 400.04 516.176 400.04C516.73 400.04 517.178 400.253 517.52 400.68C517.861 401.096 518.032 401.64 518.032 402.312V409H516.592V402.328C516.592 401.997 516.506 401.736 516.336 401.544C516.176 401.341 515.957 401.24 515.68 401.24C515.402 401.24 515.184 401.336 515.024 401.528C514.864 401.72 514.784 401.987 514.784 402.328V409H513.504V402.328C513.504 401.997 513.424 401.736 513.264 401.544C513.104 401.341 512.885 401.24 512.608 401.24C512.33 401.24 512.106 401.336 511.936 401.528C511.776 401.72 511.696 401.987 511.696 402.328V409H510.256ZM529.859 409V407.56H532.947V401.64H530.179V400.2H534.531V407.56H537.427V409H529.859ZM533.587 398.648C533.225 398.648 532.937 398.557 532.723 398.376C532.51 398.184 532.403 397.928 532.403 397.608C532.403 397.277 532.51 397.016 532.723 396.824C532.937 396.632 533.225 396.536 533.587 396.536C533.95 396.536 534.238 396.632 534.451 396.824C534.665 397.016 534.771 397.277 534.771 397.608C534.771 397.928 534.665 398.184 534.451 398.376C534.238 398.557 533.95 398.648 533.587 398.648ZM539.533 409V400.2H541.101V401.88H541.117C541.192 401.304 541.432 400.856 541.837 400.536C542.253 400.205 542.797 400.04 543.469 400.04C544.344 400.04 545.042 400.317 545.565 400.872C546.088 401.427 546.349 402.173 546.349 403.112V409H544.765V403.368C544.765 402.728 544.605 402.237 544.285 401.896C543.965 401.555 543.528 401.384 542.973 401.384C542.397 401.384 541.944 401.565 541.613 401.928C541.282 402.28 541.117 402.776 541.117 403.416V409H539.533ZM552.167 409.128C551.164 409.128 550.385 408.904 549.831 408.456C549.276 408.008 548.999 407.379 548.999 406.568H550.567C550.567 406.952 550.705 407.256 550.983 407.48C551.271 407.693 551.665 407.8 552.167 407.8H552.871C553.393 407.8 553.793 407.688 554.071 407.464C554.359 407.24 554.503 406.925 554.503 406.52C554.503 405.805 554.151 405.405 553.447 405.32L551.079 404.984C550.449 404.888 549.964 404.632 549.623 404.216C549.281 403.789 549.111 403.24 549.111 402.568C549.111 401.779 549.377 401.165 549.911 400.728C550.444 400.291 551.191 400.072 552.151 400.072H552.855C553.751 400.072 554.476 400.285 555.031 400.712C555.585 401.139 555.879 401.704 555.911 402.408H554.311C554.289 402.109 554.151 401.864 553.895 401.672C553.639 401.469 553.292 401.368 552.855 401.368H552.151C551.671 401.368 551.297 401.475 551.031 401.688C550.775 401.901 550.647 402.189 550.647 402.552C550.647 403.139 550.94 403.469 551.527 403.544L553.751 403.864C555.276 404.067 556.039 404.952 556.039 406.52C556.039 407.352 555.761 407.997 555.207 408.456C554.663 408.904 553.884 409.128 552.871 409.128H552.167ZM562.993 409C562.235 409 561.633 408.781 561.185 408.344C560.747 407.907 560.529 407.325 560.529 406.6V401.64H558.017V400.2H560.529V397.72H562.113V400.2H565.681V401.64H562.113V406.584C562.113 406.872 562.193 407.107 562.353 407.288C562.523 407.469 562.747 407.56 563.025 407.56H565.601V409H562.993ZM570.89 409.16C569.984 409.16 569.264 408.909 568.73 408.408C568.208 407.896 567.946 407.229 567.946 406.408C567.946 405.587 568.218 404.925 568.762 404.424C569.317 403.923 570.042 403.672 570.938 403.672H573.514V403C573.514 401.923 572.917 401.384 571.722 401.384C571.189 401.384 570.757 401.485 570.426 401.688C570.106 401.88 569.936 402.152 569.914 402.504H568.346C568.4 401.789 568.725 401.203 569.322 400.744C569.92 400.275 570.72 400.04 571.722 400.04C572.8 400.04 573.632 400.296 574.218 400.808C574.805 401.32 575.098 402.04 575.098 402.968V409H573.546V407.384H573.514C573.44 407.928 573.168 408.36 572.698 408.68C572.24 409 571.637 409.16 570.89 409.16ZM571.306 407.832C571.978 407.832 572.512 407.672 572.906 407.352C573.312 407.021 573.514 406.573 573.514 406.008V404.84H571.082C570.624 404.84 570.25 404.979 569.962 405.256C569.685 405.523 569.546 405.88 569.546 406.328C569.546 406.787 569.701 407.155 570.01 407.432C570.32 407.699 570.752 407.832 571.306 407.832ZM582.612 409C581.812 409 581.172 408.765 580.692 408.296C580.212 407.827 579.972 407.203 579.972 406.424V398.76H576.964V397.32H581.556V406.408C581.556 406.76 581.652 407.043 581.844 407.256C582.047 407.459 582.319 407.56 582.66 407.56H585.332V409H582.612ZM592.206 409C591.406 409 590.766 408.765 590.286 408.296C589.806 407.827 589.566 407.203 589.566 406.424V398.76H586.558V397.32H591.15V406.408C591.15 406.76 591.246 407.043 591.438 407.256C591.64 407.459 591.912 407.56 592.254 407.56H594.926V409H592.206ZM610.673 409.16C610.012 409.16 609.468 408.995 609.041 408.664C608.615 408.333 608.353 407.875 608.257 407.288V409H606.689V397.32H608.273V399.848L608.241 401.896C608.337 401.32 608.599 400.867 609.025 400.536C609.463 400.205 610.012 400.04 610.673 400.04C611.548 400.04 612.247 400.339 612.769 400.936C613.292 401.523 613.553 402.323 613.553 403.336V405.864C613.553 406.877 613.292 407.683 612.769 408.28C612.247 408.867 611.548 409.16 610.673 409.16ZM610.113 407.784C610.7 407.784 611.153 407.635 611.473 407.336C611.804 407.027 611.969 406.531 611.969 405.848V403.352C611.969 402.669 611.804 402.179 611.473 401.88C611.153 401.571 610.7 401.416 610.113 401.416C609.548 401.416 609.1 401.592 608.769 401.944C608.439 402.296 608.273 402.792 608.273 403.432V405.768C608.273 406.408 608.439 406.904 608.769 407.256C609.1 407.608 609.548 407.784 610.113 407.784ZM619.659 409.16C618.624 409.16 617.798 408.856 617.179 408.248C616.56 407.64 616.251 406.813 616.251 405.768V400.2H617.835V405.768C617.835 406.387 617.995 406.877 618.315 407.24C618.646 407.592 619.094 407.768 619.659 407.768C620.235 407.768 620.688 407.592 621.019 407.24C621.35 406.877 621.515 406.387 621.515 405.768V400.2H623.099V405.768C623.099 406.813 622.784 407.64 622.155 408.248C621.536 408.856 620.704 409.16 619.659 409.16ZM625.861 409V407.464L630.709 401.624H625.989V400.2H632.501V401.736L627.573 407.576H632.677V409H625.861ZM635.455 409V407.464L640.303 401.624H635.583V400.2H642.095V401.736L637.167 407.576H642.271V409H635.455ZM649.768 409C648.968 409 648.328 408.765 647.848 408.296C647.368 407.827 647.128 407.203 647.128 406.424V398.76H644.12V397.32H648.712V406.408C648.712 406.76 648.808 407.043 649 407.256C649.203 407.459 649.475 407.56 649.816 407.56H652.488V409H649.768ZM656.05 411.88L657.33 408.472L654.05 400.2H655.73L657.714 405.4C657.799 405.624 657.885 405.864 657.97 406.12C658.055 406.376 658.114 406.6 658.146 406.792C658.178 406.6 658.231 406.376 658.306 406.12C658.381 405.864 658.461 405.624 658.546 405.4L660.386 400.2H662.066L657.698 411.88H656.05Z" fill="black"/>
</g>
<defs>
<filter id="filter0_f_1_4" x="165" y="-46" width="1814" height="1814" filterUnits="userSpaceOnUse" color-interpolation-filters="sRGB">
<feFlood flood-opacity="0" result="BackgroundImageFix"/>
<feBlend mode="normal" in="SourceGraphic" in2="BackgroundImageFix" result="shape"/>
<feGaussianBlur stdDeviation="200" result="effect1_foregroundBlur_1_4"/>
</filter>
<filter id="filter1_f_1_4" x="-673" y="-31" width="1814" height="1814" filterUnits="userSpaceOnUse" color-interpolation-filters="sRGB">
<feFlood flood-opacity="0" result="BackgroundImageFix"/>
<feBlend mode="normal" in="SourceGraphic" in2="BackgroundImageFix" result="shape"/>
<feGaussianBlur stdDeviation="200" result="effect1_foregroundBlur_1_4"/>
</filter>
<linearGradient id="paint0_linear_1_4" x1="1072" y1="354" x2="1072" y2="1368" gradientUnits="userSpaceOnUse">
<stop stop-color="#FFD8FC"/>
<stop offset="1" stop-color="#00B0FF"/>
</linearGradient>
<linearGradient id="paint1_linear_1_4" x1="234" y1="369" x2="234" y2="1383" gradientUnits="userSpaceOnUse">
<stop stop-color="#FFD8FC"/>
<stop offset="1" stop-color="#00B0FF"/>
</linearGradient>
<clipPath id="clip0_1_4">
<rect width="1152" height="700" fill="white"/>
</clipPath>
</defs>
</svg>
